# xmcd
#
# Track frame offsets:
#	150
#	19668
#	34810
#	47986
#	56592
#	69342
#	95191
#	111502
#	133977
#	174073
#	199914
#	213384
#	227302
#	268422
#	298330
#
# Disc length: 4480 seconds
#
# Revision: 1
# Processed by: cddbd v1.5.2PL0 Copyright (c) Steve Scherf et al.
# Submitted via: EZCDAudioConverter 2.1.7.1
#
DISCID=ea117e0f
DTITLE=V/A - Liverpool International Festival Of Psychedelia 2/2
DYEAR=1900
DGENRE=
TTITLE0=Fever The Ghost - A Parliament Of Owls Determines The Fates Of Greater
TTITLE0=Men No Less Than 5 Stories Above Us In A Dream
TTITLE1=The Limiñanas - Salvation
TTITLE2=Strange Collective - Sun
TTITLE3=Pow! - 4 R E A L
TTITLE4=Lucern Raze - Cheep Speed
TTITLE5=Jibóia - Dvapara Yuga
TTITLE6=Mai Mai Mai - ἄκουσμα - Akousma
TTITLE7=Les Big Byrd - White Week
TTITLE8=Goat - Run To Your Mama [Cage and Aviary Remix]
TTITLE9=Gala Drop - Let It Go [Extended Version]
TTITLE10=Destruction Unit - If Death Ever Slept
TTITLE11=Blanck Mass - Detritus [Knox-Om-Pax Remix]
TTITLE12=Föllakzoid - Feuerzeug
TTITLE13=Bonnacons Of Doom - Exteriority
TTITLE14=Jane Weaver - Argent [Europium Aluminate Version]
EXTD=
EXTT0=
EXTT1=
EXTT2=
EXTT3=
EXTT4=
EXTT5=
EXTT6=
EXTT7=
EXTT8=
EXTT9=
EXTT10=
EXTT11=
EXTT12=
EXTT13=
EXTT14=
PLAYORDER=
